<mxfile host="app.diagrams.net" modified="2023-12-15T16:59:12.918Z" agent="Mozilla/5.0 (X11; Linux x86_64) AppleWebKit/537.36 (KHTML, like Gecko) Chrome/115.0.0.0 Safari/537.36" etag="YdUz5VcGmsQxifk7V9ds" version="22.1.11" type="github">
  <diagram name="Page-1" id="qmoxV1uOnc-Ljs5-CLre">
    <mxGraphModel dx="1434" dy="1972" grid="1" gridSize="10" guides="1" tooltips="1" connect="1" arrows="1" fold="1" page="1" pageScale="1" pageWidth="827" pageHeight="1169" math="0" shadow="0">
      <root>
        <mxCell id="0" />
        <mxCell id="1" parent="0" />
        <mxCell id="ybTZGNQZnzSlxZaqTafa-3" value="&lt;font style=&quot;font-size: 19px;&quot;&gt;Encoding and transcoding&lt;br&gt;&lt;br&gt;Requirements&lt;br&gt;reduced file size&lt;br&gt;reduced buffering rate&lt;br&gt;differenct resolution compatible&lt;br&gt;changed audio formats compatible&lt;br&gt;&lt;/font&gt;" style="shape=process;whiteSpace=wrap;html=1;backgroundOutline=1;align=left;" vertex="1" parent="1">
          <mxGeometry x="90" y="-1130" width="380" height="240" as="geometry" />
        </mxCell>
        <mxCell id="ybTZGNQZnzSlxZaqTafa-4" value="&lt;font style=&quot;font-size: 17px;&quot;&gt;Video chunks&lt;br&gt;AWS S3 best for static data&lt;br&gt;Netflix has its own CDN , open connect through which it serves cached data.&lt;br&gt;&lt;/font&gt;" style="rounded=1;whiteSpace=wrap;html=1;align=left;" vertex="1" parent="1">
          <mxGeometry x="530" y="-1129" width="210" height="230" as="geometry" />
        </mxCell>
        <mxCell id="ybTZGNQZnzSlxZaqTafa-5" value="" style="rounded=0;whiteSpace=wrap;html=1;" vertex="1" parent="1">
          <mxGeometry x="540" y="-780" width="120" height="60" as="geometry" />
        </mxCell>
      </root>
    </mxGraphModel>
  </diagram>
</mxfile>
